<svg version="1.1" id="Layer_1" xmlns="http://www.w3.org/2000/svg" xmlns:xlink="http://www.w3.org/1999/xlink" x="0px" y="0px"
	 width="41.451px" height="50px" viewBox="0 0 41.451 50" style="enable-background:new 0 0 41.451 50;" xml:space="preserve">
<style type="text/css">
<![CDATA[
	.st0{fill:#FFCD33;}
]]>
</style>
<g>
	<path class="st0" d="M22.166,10.263l0.005-0.035c-0.68-0.06-1.375-0.053-2.079,0.03c-5.495,0.648-9.424,5.591-8.777,11.04
		c0.09,0.753,0.265,1.475,0.51,2.161l0.054-0.016c0.118,0.219,0.349,0.367,0.616,0.367c0.386,0,0.7-0.312,0.7-0.697
		c0-0.012-0.001-0.024-0.002-0.037l0.031-0.009c-0.227-0.614-0.388-1.262-0.469-1.939c-0.554-4.661,2.807-8.888,7.506-9.442
		c0.58-0.068,1.154-0.077,1.714-0.032l0.005-0.039c0.366-0.022,0.655-0.324,0.655-0.694C22.636,10.616,22.439,10.357,22.166,10.263z
		"/>
	<path class="st0" d="M21.004,7.321c-7.274,0-13.171,5.875-13.171,13.121c0,3.641,1.489,6.935,3.894,9.312L11.68,29.8
		c0,0,2.846,2.902,3.849,7.711h-0.275l-0.251,0.846l0.293,0.779h0.489c0.121,1.141,0.129,2.367-0.025,3.668
		c-0.071,0.608-0.101,1.164-0.095,1.673h-0.453l-0.314,0.842l0.335,0.784h0.599c0.756,3.624,3.855,3.824,4.858,3.791l0.558,0.003
		c0.912,0.033,4.123-0.118,4.918-3.794h0.617l0.251-0.868l-0.251-0.758h-0.44c0.01-0.526-0.019-1.102-0.093-1.733
		c-0.151-1.279-0.146-2.485-0.031-3.608h0.523l0.418-0.821l-0.323-0.805h-0.37c0.992-4.845,3.862-7.771,3.862-7.771l-0.018-0.018
		c2.386-2.374,3.864-5.654,3.864-9.28C34.175,13.195,28.278,7.321,21.004,7.321z M21.319,48.827h-0.314c0,0-3.51,0.109-4.095-2.723
		h8.179C24.451,48.728,21.319,48.827,21.319,48.827z M16.777,44.478c0.004-0.2,0.014-0.409,0.031-0.628
		c0.022-0.286,0.086-0.744,0.136-1.346h8.14c0.043,0.457,0.092,0.813,0.116,1.053c0.033,0.327,0.05,0.633,0.054,0.92H16.777z
		 M16.915,39.137h8.183c-0.067,0.634-0.092,1.217-0.092,1.742h-7.995C17.008,40.349,16.981,39.766,16.915,39.137z M31.068,26.964
		c-0.327,0.5-0.691,0.973-1.087,1.417l-0.439,0.574l-0.029-0.029c-0.569,0.721-1.067,1.431-1.505,2.126l-0.556,0.832
		c0.028-0.017,0.056-0.033,0.084-0.049c-1.189,2.072-1.843,3.998-2.186,5.676h-8.685c-0.414-2.029-1.274-4.39-2.967-6.899
		l-0.136-0.229l-0.266-0.347c-0.25-0.347-0.516-0.697-0.8-1.049l-0.002,0.003l-0.466-0.608c-0.396-0.444-0.759-0.918-1.086-1.417
		l-0.193-0.252l0.038,0.007c-1.132-1.825-1.786-3.975-1.786-6.278c0-6.605,5.375-11.96,12.006-11.96
		c6.631,0,12.005,5.355,12.005,11.96c0,2.303-0.654,4.453-1.786,6.278l0.037-0.007L31.068,26.964z"/>
	<path class="st0" d="M20.596,5.153h0.35c0.096,0,0.174-0.118,0.174-0.263V0.164c0-0.145-0.078-0.263-0.174-0.263h-0.35
		c-0.097,0-0.175,0.118-0.175,0.263v4.727C20.421,5.036,20.5,5.153,20.596,5.153z"/>
	<path class="st0" d="M14.753,5.945c0.038,0.14,0.144,0.233,0.237,0.208l0.338-0.09c0.093-0.025,0.138-0.159,0.101-0.299
		l-1.228-4.566c-0.038-0.14-0.144-0.233-0.237-0.208l-0.338,0.09c-0.094,0.025-0.139,0.159-0.101,0.299L14.753,5.945z"/>
	<path class="st0" d="M10.656,8.611c0.083,0.119,0.215,0.17,0.294,0.115l0.287-0.199c0.079-0.055,0.076-0.196-0.008-0.315
		L8.507,4.339C8.423,4.22,8.292,4.169,8.212,4.225l-0.286,0.2C7.847,4.479,7.851,4.62,7.934,4.739L10.656,8.611z"/>
	<path class="st0" d="M7.763,11.958L3.875,9.247C3.756,9.164,3.615,9.16,3.559,9.239l-0.2,0.286
		c-0.056,0.078-0.004,0.21,0.115,0.293l3.887,2.711c0.12,0.083,0.261,0.086,0.316,0.008l0.201-0.285
		C7.934,12.173,7.881,12.042,7.763,11.958z"/>
	<path class="st0" d="M0.788,16.534l4.583,1.224c0.141,0.038,0.275-0.007,0.3-0.101l0.09-0.336c0.025-0.093-0.069-0.199-0.209-0.236
		l-4.583-1.224c-0.14-0.038-0.275,0.007-0.3,0.101l-0.09,0.336C0.554,16.391,0.648,16.497,0.788,16.534z"/>
	<path class="st0" d="M5.341,21.744v-0.348c0-0.097-0.119-0.175-0.264-0.175H0.332c-0.146,0-0.264,0.078-0.264,0.175v0.348
		c0,0.097,0.118,0.175,0.264,0.175h4.745C5.223,21.919,5.341,21.841,5.341,21.744z"/>
	<path class="st0" d="M6.404,26.314c-0.033-0.091-0.171-0.124-0.308-0.074l-4.458,1.617c-0.137,0.049-0.221,0.163-0.188,0.253
		l0.12,0.327c0.033,0.09,0.17,0.124,0.308,0.074l4.458-1.616c0.137-0.05,0.222-0.164,0.188-0.254L6.404,26.314z"/>
	<path class="st0" d="M26.259,6.064l0.338,0.09c0.093,0.025,0.199-0.068,0.237-0.208l1.228-4.565
		c0.038-0.141-0.007-0.274-0.101-0.299l-0.338-0.09c-0.093-0.025-0.199,0.068-0.237,0.208l-1.228,4.566
		C26.121,5.905,26.166,6.039,26.259,6.064z"/>
	<path class="st0" d="M30.35,8.527l0.287,0.199c0.079,0.056,0.211,0.004,0.294-0.115l2.722-3.872
		c0.083-0.119,0.087-0.26,0.008-0.315l-0.286-0.2c-0.079-0.056-0.211-0.004-0.294,0.115l-2.722,3.872
		C30.274,8.331,30.271,8.472,30.35,8.527z"/>
	<path class="st0" d="M38.228,9.524l-0.2-0.286c-0.056-0.079-0.197-0.075-0.316,0.008l-3.887,2.711
		c-0.119,0.083-0.171,0.215-0.115,0.293l0.2,0.285c0.055,0.079,0.196,0.075,0.316-0.008l3.887-2.711
		C38.232,9.734,38.284,9.603,38.228,9.524z"/>
	<path class="st0" d="M35.825,17.321l0.09,0.336c0.025,0.093,0.16,0.138,0.3,0.101l4.583-1.224c0.14-0.038,0.234-0.143,0.209-0.236
		l-0.09-0.336c-0.025-0.093-0.16-0.138-0.3-0.101l-4.583,1.224C35.894,17.122,35.8,17.228,35.825,17.321z"/>
	<path class="st0" d="M41.255,21.222H36.51c-0.145,0-0.264,0.078-0.264,0.175v0.348c0,0.097,0.118,0.175,0.264,0.175h4.746
		c0.146,0,0.263-0.078,0.263-0.175v-0.348C41.519,21.3,41.401,21.222,41.255,21.222z"/>
	<path class="st0" d="M39.949,27.857l-4.458-1.617c-0.137-0.05-0.275-0.017-0.308,0.074l-0.12,0.327
		c-0.034,0.09,0.051,0.204,0.188,0.254l4.459,1.616c0.137,0.05,0.274,0.017,0.307-0.074l0.12-0.327
		C40.17,28.02,40.086,27.907,39.949,27.857z"/>
</g>
</svg>
