<svg version="1.1" id="Layer_1" xmlns="http://www.w3.org/2000/svg" xmlns:xlink="http://www.w3.org/1999/xlink" x="0px" y="0px"
	 viewBox="0 0 196 232" style="enable-background:new 0 0 196 232;" xml:space="preserve">
<defs>
<style type="text/css">
        
    
	.st0{fill:#ffcc33;stroke:#ffcc33;stroke-width:1;stroke-miterlimit:10;}
        .st1{fill:#ffcc33;stroke:#ffcc33;stroke-width:1;stroke-miterlimit:10;}
        .st0{
            stroke-dasharray:1025px;
            opacity:10;
            animation-name: animate; 
            animation-duration: 3s;
            animation-timing-function: linear;
            animation-fill-mode: forwards;
            -webkit-animation-name: animate;
            -webkit-animation-duration: 3s;
            -webkit-animation-timing-function: linear;
            -webkit-animation-fill-mode: forwards;
        }
        .st1{
            stroke-dasharray:99px;
            opacity:10;
            animation-name: animate1;
             animation-duration:3s;
             animation-timing-function: linear;
             animation-fill-mode: forwards;
            -webkit-animation: animate1; 
            -webkit-animation-duration: 3s;
            -webkit-animation-timing-function: linear;
            -webkit-animation-fill-mode: forwards;
        }
        @keyframes animate{
            0%{
            opacity:0;
            fill:none;
            stroke-dashoffset:1025px;
            }
            30%{
            opacity:10;
            fill:none;
            stroke-dashoffset:1025px;
            }
            
            90%{
            fill:rgba(255,204,51,0.3);
            }
            100%{
            opacity:10;
            fill:rgba(255,204,51,1);
            stroke-dashoffset:0;
            }
}
    @-webkit-keyframes animate{
            0%{
            opacity:0;
            fill:none;
            stroke-dashoffset:1025px;
            }
            30%{
            opacity:10;
            fill:none;
            stroke-dashoffset:1025px;
            }
            
            90%{
            fill:rgba(255,204,51,0.3);
            }
            100%{
            opacity:10;
            fill:rgba(255,204,51,1);
            stroke-dashoffset:0;
            }
    }
    @keyframes animate1{
            0%{
            opacity:0;
            fill:none;
            stroke-dashoffset:99px;
            }
            30%{
            opacity:10;
            fill:none;
            stroke-dashoffset:99px;
            }
            
            90%{
            fill:rgba(255,204,51,0.3);
            }
            100%{
            opacity:10;
            fill:rgba(255,204,51,1);
            stroke-dashoffset:0;
            }
    @-webkit-keyframes animate1{
            0%{
            opacity:0;
            fill:none;
            stroke-dashoffset:99px;
            }
            30%{
            opacity:10;
            fill:none;
            stroke-dashoffset:99px;
            }
            
            90%{
            fill:rgba(255,204,51,0.3);
            }
            100%{
            opacity:10;
            fill:rgba(255,204,51,1);
            stroke-dashoffset:0;
            }

    }
}

</style>
</defs>
<g>
	<path class="st0" d="M104.203,50.438l0.022-0.159c-3.038-0.268-6.148-0.234-9.297,0.137c-24.571,2.898-42.143,25.001-39.246,49.369
		c0.401,3.367,1.184,6.595,2.278,9.661l0.244-0.068c0.528,0.977,1.563,1.641,2.755,1.641c1.727,0,3.127-1.395,3.127-3.116
		c0-0.056-0.006-0.11-0.008-0.165l0.14-0.039c-1.016-2.744-1.736-5.644-2.096-8.674c-2.477-20.84,12.551-39.744,33.565-42.223
		c2.595-0.306,5.16-0.345,7.667-0.143l0.024-0.174c1.635-0.102,2.931-1.451,2.931-3.105
		C106.308,52.017,105.427,50.86,104.203,50.438z"/>
	<path class="st0" d="M99.01,37.282c-32.531,0-58.902,26.271-58.902,58.678c0,16.282,6.66,31.012,17.412,41.641l-0.21,0.209
		c0,0,12.727,12.978,17.216,34.483h-1.233l-1.124,3.784l1.31,3.485h2.185c0.539,5.1,0.577,10.582-0.11,16.406
		c-0.321,2.719-0.453,5.205-0.423,7.48h-2.025l-1.404,3.765l1.497,3.505h2.679c3.382,16.208,17.243,17.101,21.726,16.953
		l2.496,0.013c4.078,0.148,18.438-0.526,21.995-16.966h2.76l1.123-3.879l-1.123-3.391h-1.968c0.043-2.351-0.085-4.926-0.418-7.751
		c-0.676-5.721-0.65-11.113-0.139-16.136h2.338l1.871-3.672l-1.444-3.598h-1.653c4.438-21.667,17.271-34.753,17.271-34.753
		l-0.081-0.081c10.672-10.618,17.282-25.286,17.282-41.499C157.913,63.553,131.542,37.282,99.01,37.282z M100.418,222.898H99.01
		c0,0-15.699,0.49-18.313-12.178h36.576C114.424,222.456,100.418,222.898,100.418,222.898z M80.108,203.45
		c0.018-0.896,0.061-1.829,0.137-2.807c0.099-1.28,0.385-3.329,0.61-6.021h36.4c0.191,2.044,0.412,3.637,0.521,4.711
		c0.148,1.46,0.225,2.83,0.239,4.116H80.108z M80.724,179.563h36.592c-0.298,2.834-0.41,5.442-0.409,7.79H81.151
		C81.141,184.983,81.021,182.376,80.724,179.563z M144.017,125.129c-1.462,2.234-3.087,4.353-4.859,6.339l-1.967,2.566l-0.129-0.128
		c-2.545,3.223-4.775,6.397-6.735,9.507l-2.487,3.717c0.127-0.072,0.251-0.148,0.378-0.221c-5.321,9.265-8.243,17.878-9.777,25.385
		H79.6c-1.85-9.073-5.697-19.634-13.266-30.85l-0.61-1.025l-1.189-1.551c-1.119-1.554-2.307-3.118-3.576-4.691l-0.011,0.011
		l-2.084-2.719c-1.771-1.986-3.396-4.104-4.859-6.339l-0.864-1.128l0.167,0.034c-5.062-8.161-7.987-17.777-7.987-28.075
		c0-29.539,24.038-53.485,53.69-53.485c29.652,0,53.69,23.946,53.69,53.485c0,10.298-2.924,19.914-7.986,28.075l0.167-0.034
		L144.017,125.129z"/>
	<path class="st0" d="M97.187,27.589h1.563c0.432,0,0.782-0.526,0.782-1.175V5.275c0-0.648-0.35-1.174-0.782-1.174h-1.563
		c-0.432,0-0.782,0.526-0.782,1.174v21.139C96.404,27.063,96.754,27.589,97.187,27.589z"/>
	<path class="st0" d="M71.056,31.131c0.168,0.626,0.643,1.044,1.061,0.933l1.51-0.403c0.417-0.112,0.619-0.71,0.45-1.336
		L68.584,9.906c-0.168-0.626-0.643-1.044-1.06-0.933l-1.51,0.403c-0.417,0.111-0.619,0.709-0.45,1.336L71.056,31.131z"/>
	<path class="st0" d="M52.732,43.052c0.374,0.531,0.963,0.763,1.317,0.515l1.281-0.893c0.354-0.247,0.337-0.877-0.036-1.409
		L43.123,23.949c-0.374-0.531-0.962-0.762-1.317-0.515l-1.281,0.894c-0.354,0.247-0.338,0.877,0.036,1.409L52.732,43.052z"/>
	<path class="st0" d="M39.792,58.019L22.41,45.895c-0.533-0.372-1.167-0.388-1.415-0.036l-0.896,1.276
		c-0.248,0.352-0.016,0.939,0.517,1.312l17.383,12.125c0.533,0.372,1.166,0.388,1.414,0.035l0.897-1.275
		C40.558,58.979,40.325,58.391,39.792,58.019z"/>
	<path class="st0" d="M8.605,78.485l20.497,5.471c0.629,0.167,1.229-0.033,1.341-0.449l0.405-1.504
		c0.111-0.416-0.308-0.889-0.937-1.057L9.414,75.476c-0.629-0.168-1.229,0.032-1.341,0.449l-0.404,1.504
		C7.556,77.844,7.976,78.316,8.605,78.485z"/>
	<path class="st0" d="M28.962,101.785v-1.557c0-0.431-0.528-0.779-1.179-0.779H6.563c-0.651,0-1.179,0.349-1.179,0.779l0,1.557
		c0,0.431,0.527,0.779,1.179,0.779h21.22C28.434,102.563,28.962,102.215,28.962,101.785z"/>
	<path class="st0" d="M33.718,122.222c-0.148-0.405-0.764-0.553-1.376-0.331l-19.94,7.23c-0.612,0.222-0.988,0.729-0.84,1.134
		l0.535,1.463c0.147,0.405,0.762,0.552,1.375,0.331l19.94-7.23c0.612-0.222,0.989-0.729,0.84-1.134L33.718,122.222z"/>
	<path class="st0" d="M122.509,31.661l1.51,0.403c0.417,0.111,0.892-0.307,1.061-0.933l5.492-20.418
		c0.168-0.627-0.033-1.225-0.45-1.336l-1.51-0.403c-0.417-0.111-0.892,0.306-1.06,0.933l-5.493,20.419
		C121.891,30.951,122.093,31.549,122.509,31.661z"/>
	<path class="st0" d="M140.807,42.674l1.28,0.893c0.354,0.248,0.943,0.016,1.317-0.515l12.171-17.316
		c0.374-0.532,0.39-1.162,0.036-1.409l-1.281-0.894c-0.354-0.247-0.943-0.016-1.316,0.515l-12.171,17.316
		C140.469,41.796,140.453,42.427,140.807,42.674z"/>
	<path class="st0" d="M176.037,47.135l-0.897-1.276c-0.247-0.353-0.881-0.336-1.414,0.036l-17.382,12.125
		c-0.533,0.372-0.765,0.959-0.517,1.312l0.896,1.275c0.248,0.353,0.88,0.336,1.414-0.035l17.382-12.125
		C176.053,48.074,176.285,47.487,176.037,47.135z"/>
	<path class="st0" d="M165.288,82.003l0.405,1.504c0.112,0.416,0.712,0.616,1.341,0.449l20.497-5.471
		c0.629-0.168,1.048-0.641,0.936-1.057l-0.404-1.504c-0.113-0.417-0.712-0.617-1.341-0.449l-20.497,5.471
		C165.596,81.114,165.177,81.587,165.288,82.003z"/>
	<path class="st0" d="M189.573,99.448h-21.22c-0.651,0-1.179,0.349-1.179,0.779l0,1.557c-0.001,0.431,0.527,0.779,1.179,0.779h21.22
		c0.651,0,1.179-0.349,1.178-0.779l0-1.557C190.751,99.797,190.224,99.448,189.573,99.448z"/>
	<path class="st0" d="M183.734,129.121l-19.94-7.23c-0.612-0.222-1.228-0.074-1.376,0.331l-0.534,1.463
		c-0.149,0.405,0.228,0.912,0.84,1.134l19.94,7.23c0.612,0.222,1.228,0.074,1.375-0.331l0.535-1.463
		C184.722,129.85,184.346,129.343,183.734,129.121z"/>
</g>
</svg>
